<svg xmlns="http://www.w3.org/2000/svg" width="193" height="61" viewBox="0 0 193 61" fill="none"><path d="M17.938 3.4375H43.063C51.0719 3.4375 57.5649 9.93058 57.5649 17.9395V43.0645C57.5638 51.0735 51.0719 57.5654 43.063 57.5654H17.938C9.92915 57.5654 3.4361 51.0723 3.43604 43.0635V17.9395L3.44092 17.5654C3.63625 9.85374 9.85227 3.63771 17.564 3.44238L17.938 3.4375Z" fill="#D1202E" stroke="#D1202E"></path><path d="M44.1732 60.5H16.828C7.81043 60.5 0.5 53.1896 0.5 44.172V16.828C0.5 7.81044 7.81043 0.5 16.828 0.5H44.172C53.1896 0.5 60.5 7.81044 60.5 16.828V44.172C60.5 53.1896 53.1895 60.5 44.1732 60.5Z" stroke="#D1202E" stroke-miterlimit="10"></path><path d="M33.667 13H38V18.3076H34.7236C34.0054 18.3076 33.3944 18.4577 33.0146 18.9736C32.671 19.4408 32.6123 20.0988 32.6123 20.8076V24.7695H37.9561L37.5225 29.8477H32.6123V48H26.6309V29.9229H23V24.7676H26.6309V19.4229C26.6309 17.2304 27.1946 15.655 28.2939 14.6201C29.3993 13.5796 31.1364 13 33.667 13Z" fill="white" stroke="white"></path><path d="M87.4444 5.59359L89.7444 10.5936C89.8444 10.8936 90.1444 11.0936 90.4444 11.1936L95.6444 11.9936C96.5444 11.9936 96.8444 12.9936 96.2444 13.5936L92.4444 17.4936C92.2444 17.6936 92.1444 18.0936 92.1444 18.3936L93.0444 23.7936C93.1444 24.5936 92.3444 25.2936 91.6444 24.8936L86.9444 22.2936C86.6444 22.0936 86.3444 22.0936 86.0444 22.2936L81.3444 24.8936C80.6444 25.2936 79.7444 24.6936 79.9444 23.7936L80.8444 18.3936C80.9444 18.0936 80.7444 17.6936 80.5444 17.4936L76.7444 13.5936C76.2444 12.9936 76.5444 11.9936 77.3444 11.8936L82.5444 11.0936C82.8444 11.0936 83.1444 10.7936 83.2444 10.4936L85.5444 5.49359C86.0444 4.79359 87.0444 4.79359 87.4444 5.59359Z" fill="#FFD800"></path><path d="M111.444 5.59359L113.744 10.5936C113.844 10.8936 114.144 11.0936 114.444 11.1936L119.644 11.9936C120.544 11.9936 120.844 12.9936 120.244 13.5936L116.444 17.4936C116.244 17.6936 116.144 18.0936 116.144 18.3936L117.044 23.7936C117.144 24.5936 116.344 25.2936 115.644 24.8936L110.944 22.2936C110.644 22.0936 110.344 22.0936 110.044 22.2936L105.344 24.8936C104.644 25.2936 103.744 24.6936 103.944 23.7936L104.844 18.3936C104.944 18.0936 104.744 17.6936 104.544 17.4936L100.744 13.5936C100.244 12.9936 100.544 11.9936 101.344 11.8936L106.544 11.0936C106.844 11.0936 107.144 10.7936 107.244 10.4936L109.544 5.49359C110.044 4.79359 111.044 4.79359 111.444 5.59359Z" fill="#FFD800"></path><path d="M135.444 5.59359L137.744 10.5936C137.844 10.8936 138.144 11.0936 138.444 11.1936L143.644 11.9936C144.544 11.9936 144.844 12.9936 144.244 13.5936L140.444 17.4936C140.244 17.6936 140.144 18.0936 140.144 18.3936L141.044 23.7936C141.144 24.5936 140.344 25.2936 139.644 24.8936L134.944 22.2936C134.644 22.0936 134.344 22.0936 134.044 22.2936L129.344 24.8936C128.644 25.2936 127.744 24.6936 127.944 23.7936L128.844 18.3936C128.944 18.0936 128.744 17.6936 128.544 17.4936L124.744 13.5936C124.244 12.9936 124.544 11.9936 125.344 11.8936L130.544 11.0936C130.844 11.0936 131.144 10.7936 131.244 10.4936L133.544 5.49359C134.044 4.79359 135.044 4.79359 135.444 5.59359Z" fill="#FFD800"></path><path d="M159.444 5.59359L161.744 10.5936C161.844 10.8936 162.144 11.0936 162.444 11.1936L167.644 11.9936C168.544 11.9936 168.844 12.9936 168.244 13.5936L164.444 17.4936C164.244 17.6936 164.144 18.0936 164.144 18.3936L165.044 23.7936C165.144 24.5936 164.344 25.2936 163.644 24.8936L158.944 22.2936C158.644 22.0936 158.344 22.0936 158.044 22.2936L153.344 24.8936C152.644 25.2936 151.744 24.6936 151.944 23.7936L152.844 18.3936C152.944 18.0936 152.744 17.6936 152.544 17.4936L148.744 13.5936C148.244 12.9936 148.544 11.9936 149.344 11.8936L154.544 11.0936C154.844 11.0936 155.144 10.7936 155.244 10.4936L157.544 5.49359C158.044 4.79359 159.044 4.79359 159.444 5.59359Z" fill="#FFD800"></path><path d="M183.191 5.59239L185.484 10.5826C185.584 10.882 185.883 11.0816 186.182 11.1814L191.368 11.9798C192.265 11.9798 192.564 12.9778 191.966 13.5767L188.177 17.469C187.977 17.6686 187.878 18.0678 187.878 18.3672L188.775 23.7566C188.875 24.555 188.077 25.2536 187.379 24.8544L182.692 22.2595C182.393 22.0599 182.094 22.0599 181.795 22.2595L177.108 24.8544C176.41 25.2536 175.513 24.6548 175.712 23.7566L176.61 18.3672C176.709 18.0678 176.51 17.6686 176.31 17.469L172.521 13.5767C172.023 12.9778 172.322 11.9798 173.119 11.88L178.305 11.0816C178.604 11.0816 178.903 10.7822 179.003 10.4828L181.296 5.49259C181.795 4.79396 182.792 4.79396 183.191 5.59239Z" fill="white"></path><path d="M181.296 5.49219C181.795 4.79372 182.792 4.7944 183.191 5.59277L185.485 10.583C185.584 10.8822 185.884 11.0819 186.183 11.1816L191.367 11.9795C192.265 11.9795 192.564 12.9773 191.966 13.5762L188.177 17.4688C187.978 17.6684 187.878 18.0678 187.878 18.3672L188.776 23.7568C188.875 24.5551 188.077 25.2536 187.379 24.8545L182.693 22.2598C182.393 22.0602 182.094 22.0602 181.795 22.2598L177.109 24.8545C176.411 25.2537 175.513 24.6549 175.712 23.7568L176.61 18.3672C176.709 18.0678 176.51 17.6684 176.311 17.4688L172.521 13.5762C172.023 12.9773 172.322 11.9797 173.119 11.8799L178.305 11.082C178.604 11.0819 178.903 10.7818 179.003 10.4824L181.296 5.49219Z" fill="#FFD800"></path><path d="M81.022 51.3235C80.072 51.3235 79.1537 51.2095 78.267 50.9815C77.393 50.7535 76.6013 50.4052 75.892 49.9365L77.925 46.8205C78.4443 47.1499 79.0017 47.3969 79.597 47.5615C80.205 47.7135 80.7813 47.7895 81.326 47.7895C81.9467 47.7895 82.4217 47.6945 82.751 47.5045C83.0803 47.3019 83.245 47.0232 83.245 46.6685C83.245 46.3899 83.1247 46.1745 82.884 46.0225C82.6433 45.8705 82.2127 45.7945 81.592 45.7945H77.545L79.825 37.7195H88.66L87.976 41.1015H80.718L83.359 39.1825L81.934 44.3315L80.072 42.4125H82.808C84.3913 42.4125 85.6137 42.7292 86.475 43.3625C87.3363 43.9832 87.767 44.9142 87.767 46.1555C87.767 47.2322 87.4693 48.1569 86.874 48.9295C86.2913 49.7022 85.487 50.2975 84.461 50.7155C83.4477 51.1209 82.3013 51.3235 81.022 51.3235ZM90.3917 51.2095C89.695 51.2095 89.125 51.0005 88.6817 50.5825C88.251 50.1519 88.0357 49.6072 88.0357 48.9485C88.0357 48.1505 88.2953 47.5109 88.8147 47.0295C89.3467 46.5482 89.9863 46.3075 90.7337 46.3075C91.443 46.3075 92.0067 46.5165 92.4247 46.9345C92.8553 47.3525 93.0707 47.8972 93.0707 48.5685C93.0707 49.1005 92.9503 49.5629 92.7097 49.9555C92.469 50.3482 92.146 50.6585 91.7407 50.8865C91.3353 51.1019 90.8857 51.2095 90.3917 51.2095ZM99.5889 51.3235C98.5502 51.3235 97.6445 51.1209 96.8719 50.7155C96.0992 50.2975 95.4975 49.7022 95.0669 48.9295C94.6489 48.1569 94.4399 47.2195 94.4399 46.1175C94.4399 44.8635 94.6172 43.7109 94.9719 42.6595C95.3265 41.5955 95.8269 40.6709 96.4729 39.8855C97.1189 39.1002 97.8789 38.4922 98.7529 38.0615C99.6395 37.6309 100.602 37.4155 101.641 37.4155C102.68 37.4155 103.585 37.6182 104.358 38.0235C105.131 38.4289 105.726 39.0242 106.144 39.8095C106.575 40.5822 106.79 41.5195 106.79 42.6215C106.79 43.8755 106.613 45.0345 106.258 46.0985C105.903 47.1499 105.403 48.0682 104.757 48.8535C104.111 49.6389 103.345 50.2469 102.458 50.6775C101.584 51.1082 100.628 51.3235 99.5889 51.3235ZM100.045 47.7325C100.438 47.7325 100.773 47.5615 101.052 47.2195C101.343 46.8649 101.578 46.4215 101.755 45.8895C101.945 45.3575 102.084 44.8129 102.173 44.2555C102.262 43.6855 102.306 43.1789 102.306 42.7355C102.306 42.0769 102.198 41.6272 101.983 41.3865C101.78 41.1332 101.514 41.0065 101.185 41.0065C100.792 41.0065 100.45 41.1839 100.159 41.5385C99.8802 41.8805 99.6459 42.3175 99.4559 42.8495C99.2785 43.3815 99.1455 43.9325 99.0569 44.5025C98.9682 45.0599 98.9239 45.5602 98.9239 46.0035C98.9239 46.6622 99.0315 47.1182 99.2469 47.3715C99.4622 47.6122 99.7282 47.7325 100.045 47.7325ZM112.645 51.0195L115.305 37.7195H121.271C123.032 37.7195 124.394 38.1059 125.356 38.8785C126.319 39.6385 126.8 40.7089 126.8 42.0895C126.8 43.2042 126.522 44.1795 125.964 45.0155C125.42 45.8515 124.641 46.5039 123.627 46.9725C122.627 47.4412 121.442 47.6755 120.074 47.6755H115.78L118.174 45.7945L117.129 51.0195H112.645ZM120.777 51.0195L118.041 46.1745H122.658L125.432 51.0195H120.777ZM118.06 46.3265L116.483 44.2935H120.302C120.923 44.2935 121.404 44.1415 121.746 43.8375C122.088 43.5209 122.259 43.0839 122.259 42.5265C122.259 42.0452 122.107 41.7032 121.803 41.5005C121.512 41.2852 121.107 41.1775 120.587 41.1775H117.11L119.504 39.0875L118.06 46.3265ZM125.359 51.0195L133.833 37.7195H138.241L141.395 51.0195H136.93L134.783 39.7905H136.531L130.09 51.0195H125.359ZM129.273 48.7015L131.059 45.4715H137.177L137.671 48.7015H129.273ZM144.33 51.0195L146.287 41.1965H142.392L143.095 37.7195H155.369L154.666 41.1965H150.771L148.814 51.0195H144.33ZM153.874 51.0195L156.534 37.7195H161.018L158.358 51.0195H153.874ZM160.517 51.0195L163.177 37.7195H166.863L171.86 45.8135H170.302L171.917 37.7195H176.287L173.627 51.0195H169.941L164.944 42.9255H166.502L164.887 51.0195H160.517ZM183.349 51.3235C181.981 51.3235 180.784 51.0765 179.758 50.5825C178.732 50.0759 177.934 49.3792 177.364 48.4925C176.807 47.5932 176.528 46.5545 176.528 45.3765C176.528 44.2112 176.731 43.1409 177.136 42.1655C177.554 41.1902 178.143 40.3479 178.903 39.6385C179.663 38.9292 180.562 38.3845 181.601 38.0045C182.652 37.6119 183.811 37.4155 185.078 37.4155C186.471 37.4155 187.668 37.6372 188.669 38.0805C189.682 38.5112 190.499 39.1572 191.12 40.0185L187.909 42.5075C187.478 41.9502 187.022 41.5702 186.541 41.3675C186.06 41.1522 185.502 41.0445 184.869 41.0445C184.286 41.0445 183.761 41.1459 183.292 41.3485C182.823 41.5385 182.418 41.8172 182.076 42.1845C181.747 42.5392 181.493 42.9635 181.316 43.4575C181.139 43.9515 181.05 44.4962 181.05 45.0915C181.05 45.6109 181.164 46.0669 181.392 46.4595C181.633 46.8522 181.968 47.1562 182.399 47.3715C182.842 47.5869 183.368 47.6945 183.976 47.6945C184.483 47.6945 184.989 47.6122 185.496 47.4475C186.003 47.2702 186.522 46.9725 187.054 46.5545L188.745 49.7465C188.048 50.2532 187.238 50.6459 186.313 50.9245C185.388 51.1905 184.4 51.3235 183.349 51.3235ZM184.983 49.0625L185.99 44.0085H189.885L188.745 49.7465L184.983 49.0625Z" fill="white"></path></svg>